<mxfile host="app.diagrams.net" modified="2022-11-05T18:49:45.041Z" agent="5.0 (Windows)" etag="kmmUVpJmsr1YJEbjiBM6" version="20.5.2" type="github" pages="2">
  <diagram id="TRiiA5Tgg4-jQ_oWnkeo" name="Page-1">
    <mxGraphModel dx="784" dy="511" grid="1" gridSize="10" guides="1" tooltips="1" connect="1" arrows="1" fold="1" page="1" pageScale="1" pageWidth="850" pageHeight="1100" math="0" shadow="0">
      <root>
        <mxCell id="0" />
        <mxCell id="1" parent="0" />
        <mxCell id="sAw_4a6z9DYao7gsoYwH-1" value="" style="strokeWidth=1;shadow=0;dashed=0;align=center;html=1;shape=mxgraph.mockup.containers.browserWindow;rSize=0;strokeColor=#666666;strokeColor2=#008cff;strokeColor3=#c4c4c4;mainText=,;recursiveResize=0;" parent="1" vertex="1">
          <mxGeometry x="35" y="50" width="720" height="520" as="geometry" />
        </mxCell>
        <mxCell id="sAw_4a6z9DYao7gsoYwH-2" value="Page 1" style="strokeWidth=1;shadow=0;dashed=0;align=center;html=1;shape=mxgraph.mockup.containers.anchor;fontSize=17;fontColor=#666666;align=left;" parent="sAw_4a6z9DYao7gsoYwH-1" vertex="1">
          <mxGeometry x="60" y="12" width="110" height="26" as="geometry" />
        </mxCell>
        <mxCell id="sAw_4a6z9DYao7gsoYwH-3" value="https://www.draw.io" style="strokeWidth=1;shadow=0;dashed=0;align=center;html=1;shape=mxgraph.mockup.containers.anchor;rSize=0;fontSize=17;fontColor=#666666;align=left;" parent="sAw_4a6z9DYao7gsoYwH-1" vertex="1">
          <mxGeometry x="130" y="60" width="250" height="26" as="geometry" />
        </mxCell>
        <mxCell id="sAw_4a6z9DYao7gsoYwH-4" value="" style="shape=mxgraph.mockup.containers.marginRect;rectMarginTop=10;strokeColor=#666666;strokeWidth=1;dashed=0;rounded=1;arcSize=5;recursiveResize=0;" parent="sAw_4a6z9DYao7gsoYwH-1" vertex="1">
          <mxGeometry x="50" y="120" width="590" height="290" as="geometry" />
        </mxCell>
        <mxCell id="sAw_4a6z9DYao7gsoYwH-5" value="Group" style="shape=rect;strokeColor=none;fillColor=#008cff;strokeWidth=1;dashed=0;rounded=1;arcSize=20;fontColor=#ffffff;fontSize=17;spacing=2;spacingTop=-2;align=left;autosize=1;spacingLeft=4;resizeWidth=0;resizeHeight=0;perimeter=none;" parent="sAw_4a6z9DYao7gsoYwH-4" vertex="1">
          <mxGeometry x="5" width="90" height="30" as="geometry" />
        </mxCell>
        <mxCell id="sAw_4a6z9DYao7gsoYwH-7" value="" style="verticalLabelPosition=bottom;shadow=0;dashed=0;align=center;html=1;verticalAlign=top;strokeWidth=1;shape=mxgraph.mockup.navigation.scrollBar;strokeColor=#999999;barPos=36.235;fillColor2=#99ddff;strokeColor2=none;" parent="sAw_4a6z9DYao7gsoYwH-4" vertex="1">
          <mxGeometry x="120" y="60" width="470" height="10" as="geometry" />
        </mxCell>
        <mxCell id="sAw_4a6z9DYao7gsoYwH-9" value="" style="line;strokeWidth=2;html=1;" parent="sAw_4a6z9DYao7gsoYwH-4" vertex="1">
          <mxGeometry y="80" width="590" height="10" as="geometry" />
        </mxCell>
        <mxCell id="sAw_4a6z9DYao7gsoYwH-39" value="" style="verticalLabelPosition=bottom;shadow=0;dashed=0;align=center;html=1;verticalAlign=top;strokeWidth=1;shape=mxgraph.mockup.markup.line;strokeColor=#999999;" parent="sAw_4a6z9DYao7gsoYwH-4" vertex="1">
          <mxGeometry y="130" width="590" height="20" as="geometry" />
        </mxCell>
        <mxCell id="sAw_4a6z9DYao7gsoYwH-8" value="" style="verticalLabelPosition=bottom;shadow=0;dashed=0;align=center;html=1;verticalAlign=top;strokeWidth=1;shape=mxgraph.mockup.forms.splitter;strokeColor=#999999;direction=north;" parent="sAw_4a6z9DYao7gsoYwH-4" vertex="1">
          <mxGeometry x="110" y="10" width="10" height="280" as="geometry" />
        </mxCell>
        <mxCell id="sAw_4a6z9DYao7gsoYwH-41" value="" style="verticalLabelPosition=bottom;shadow=0;dashed=0;align=center;html=1;verticalAlign=top;strokeWidth=1;shape=mxgraph.mockup.markup.line;strokeColor=#999999;" parent="sAw_4a6z9DYao7gsoYwH-4" vertex="1">
          <mxGeometry y="160" width="590" height="20" as="geometry" />
        </mxCell>
        <mxCell id="sAw_4a6z9DYao7gsoYwH-40" value="" style="verticalLabelPosition=bottom;shadow=0;dashed=0;align=center;html=1;verticalAlign=top;strokeWidth=1;shape=mxgraph.mockup.markup.line;strokeColor=#999999;" parent="sAw_4a6z9DYao7gsoYwH-4" vertex="1">
          <mxGeometry y="190" width="590" height="20" as="geometry" />
        </mxCell>
        <mxCell id="sAw_4a6z9DYao7gsoYwH-44" value="" style="verticalLabelPosition=bottom;shadow=0;dashed=0;align=center;html=1;verticalAlign=top;strokeWidth=1;shape=mxgraph.mockup.markup.line;strokeColor=#999999;" parent="sAw_4a6z9DYao7gsoYwH-4" vertex="1">
          <mxGeometry y="250" width="590" height="20" as="geometry" />
        </mxCell>
        <mxCell id="sAw_4a6z9DYao7gsoYwH-43" value="" style="verticalLabelPosition=bottom;shadow=0;dashed=0;align=center;html=1;verticalAlign=top;strokeWidth=1;shape=mxgraph.mockup.markup.line;strokeColor=#999999;" parent="sAw_4a6z9DYao7gsoYwH-4" vertex="1">
          <mxGeometry y="220" width="590" height="20" as="geometry" />
        </mxCell>
        <mxCell id="sAw_4a6z9DYao7gsoYwH-42" value="" style="verticalLabelPosition=bottom;shadow=0;dashed=0;align=center;html=1;verticalAlign=top;strokeWidth=1;shape=mxgraph.mockup.markup.line;strokeColor=#999999;" parent="sAw_4a6z9DYao7gsoYwH-4" vertex="1">
          <mxGeometry y="100" width="590" height="20" as="geometry" />
        </mxCell>
        <mxCell id="sAw_4a6z9DYao7gsoYwH-59" value="" style="verticalLabelPosition=bottom;shadow=0;dashed=0;align=center;html=1;verticalAlign=top;strokeWidth=1;shape=mxgraph.mockup.markup.line;strokeColor=#999999;direction=north;" parent="sAw_4a6z9DYao7gsoYwH-4" vertex="1">
          <mxGeometry x="185" y="85" width="20" height="205" as="geometry" />
        </mxCell>
        <mxCell id="sAw_4a6z9DYao7gsoYwH-62" value="" style="verticalLabelPosition=bottom;shadow=0;dashed=0;align=center;html=1;verticalAlign=top;strokeWidth=1;shape=mxgraph.mockup.markup.line;strokeColor=#999999;direction=north;" parent="sAw_4a6z9DYao7gsoYwH-4" vertex="1">
          <mxGeometry x="505" y="80" width="20" height="210" as="geometry" />
        </mxCell>
        <mxCell id="sAw_4a6z9DYao7gsoYwH-61" value="" style="verticalLabelPosition=bottom;shadow=0;dashed=0;align=center;html=1;verticalAlign=top;strokeWidth=1;shape=mxgraph.mockup.markup.line;strokeColor=#999999;direction=north;" parent="sAw_4a6z9DYao7gsoYwH-4" vertex="1">
          <mxGeometry x="425" y="85" width="20" height="205" as="geometry" />
        </mxCell>
        <mxCell id="sAw_4a6z9DYao7gsoYwH-60" value="" style="verticalLabelPosition=bottom;shadow=0;dashed=0;align=center;html=1;verticalAlign=top;strokeWidth=1;shape=mxgraph.mockup.markup.line;strokeColor=#999999;direction=north;" parent="sAw_4a6z9DYao7gsoYwH-4" vertex="1">
          <mxGeometry x="345" y="85" width="20" height="205" as="geometry" />
        </mxCell>
        <mxCell id="sAw_4a6z9DYao7gsoYwH-63" value="" style="verticalLabelPosition=bottom;shadow=0;dashed=0;align=center;html=1;verticalAlign=top;strokeWidth=1;shape=mxgraph.mockup.markup.line;strokeColor=#999999;direction=north;" parent="sAw_4a6z9DYao7gsoYwH-4" vertex="1">
          <mxGeometry x="265" y="85" width="20" height="205" as="geometry" />
        </mxCell>
        <mxCell id="sAw_4a6z9DYao7gsoYwH-6" value="&lt;div&gt;+&lt;/div&gt;" style="strokeWidth=1;shadow=0;dashed=0;align=center;html=1;shape=mxgraph.mockup.buttons.button;strokeColor=#666666;fontColor=#ffffff;mainText=;buttonStyle=round;fontSize=17;fontStyle=1;fillColor=#008cff;whiteSpace=wrap;" parent="sAw_4a6z9DYao7gsoYwH-1" vertex="1">
          <mxGeometry x="9" y="420" width="30" height="30" as="geometry" />
        </mxCell>
        <mxCell id="sAw_4a6z9DYao7gsoYwH-20" value="" style="shape=table;html=1;whiteSpace=wrap;startSize=0;container=1;collapsible=0;childLayout=tableLayout;strokeWidth=2;" parent="sAw_4a6z9DYao7gsoYwH-1" vertex="1">
          <mxGeometry x="170" y="140" width="470" height="40" as="geometry" />
        </mxCell>
        <mxCell id="sAw_4a6z9DYao7gsoYwH-21" value="" style="shape=tableRow;horizontal=0;startSize=0;swimlaneHead=0;swimlaneBody=0;top=0;left=0;bottom=0;right=0;collapsible=0;dropTarget=0;fillColor=none;points=[[0,0.5],[1,0.5]];portConstraint=eastwest;" parent="sAw_4a6z9DYao7gsoYwH-20" vertex="1">
          <mxGeometry width="470" height="40" as="geometry" />
        </mxCell>
        <mxCell id="sAw_4a6z9DYao7gsoYwH-22" value="&lt;div&gt;Mon&lt;/div&gt;&lt;div&gt;X/XX&lt;br&gt;&lt;/div&gt;" style="shape=partialRectangle;html=1;whiteSpace=wrap;connectable=0;fillColor=none;top=0;left=0;bottom=0;right=0;overflow=hidden;fontStyle=1" parent="sAw_4a6z9DYao7gsoYwH-21" vertex="1">
          <mxGeometry width="78" height="40" as="geometry">
            <mxRectangle width="78" height="40" as="alternateBounds" />
          </mxGeometry>
        </mxCell>
        <mxCell id="sAw_4a6z9DYao7gsoYwH-23" value="" style="shape=partialRectangle;html=1;whiteSpace=wrap;connectable=0;fillColor=none;top=0;left=0;bottom=0;right=0;overflow=hidden;fontStyle=1" parent="sAw_4a6z9DYao7gsoYwH-21" vertex="1">
          <mxGeometry x="78" width="79" height="40" as="geometry">
            <mxRectangle width="79" height="40" as="alternateBounds" />
          </mxGeometry>
        </mxCell>
        <mxCell id="sAw_4a6z9DYao7gsoYwH-30" style="shape=partialRectangle;html=1;whiteSpace=wrap;connectable=0;fillColor=none;top=0;left=0;bottom=0;right=0;overflow=hidden;fontStyle=1" parent="sAw_4a6z9DYao7gsoYwH-21" vertex="1">
          <mxGeometry x="157" width="78" height="40" as="geometry">
            <mxRectangle width="78" height="40" as="alternateBounds" />
          </mxGeometry>
        </mxCell>
        <mxCell id="sAw_4a6z9DYao7gsoYwH-31" style="shape=partialRectangle;html=1;whiteSpace=wrap;connectable=0;fillColor=none;top=0;left=0;bottom=0;right=0;overflow=hidden;fontStyle=1" parent="sAw_4a6z9DYao7gsoYwH-21" vertex="1">
          <mxGeometry x="235" width="78" height="40" as="geometry">
            <mxRectangle width="78" height="40" as="alternateBounds" />
          </mxGeometry>
        </mxCell>
        <mxCell id="sAw_4a6z9DYao7gsoYwH-32" style="shape=partialRectangle;html=1;whiteSpace=wrap;connectable=0;fillColor=none;top=0;left=0;bottom=0;right=0;overflow=hidden;fontStyle=1" parent="sAw_4a6z9DYao7gsoYwH-21" vertex="1">
          <mxGeometry x="313" width="79" height="40" as="geometry">
            <mxRectangle width="79" height="40" as="alternateBounds" />
          </mxGeometry>
        </mxCell>
        <mxCell id="sAw_4a6z9DYao7gsoYwH-33" style="shape=partialRectangle;html=1;whiteSpace=wrap;connectable=0;fillColor=none;top=0;left=0;bottom=0;right=0;overflow=hidden;fontStyle=1" parent="sAw_4a6z9DYao7gsoYwH-21" vertex="1">
          <mxGeometry x="392" width="78" height="40" as="geometry">
            <mxRectangle width="78" height="40" as="alternateBounds" />
          </mxGeometry>
        </mxCell>
        <mxCell id="sAw_4a6z9DYao7gsoYwH-34" value="&lt;div&gt;Mon&lt;/div&gt;&lt;div&gt;X/XX&lt;br&gt;&lt;/div&gt;" style="shape=partialRectangle;html=1;whiteSpace=wrap;connectable=0;fillColor=none;top=0;left=0;bottom=0;right=0;overflow=hidden;fontStyle=1" parent="sAw_4a6z9DYao7gsoYwH-1" vertex="1">
          <mxGeometry x="245" y="140" width="78" height="40" as="geometry">
            <mxRectangle width="78" height="40" as="alternateBounds" />
          </mxGeometry>
        </mxCell>
        <mxCell id="sAw_4a6z9DYao7gsoYwH-35" value="&lt;div&gt;Mon&lt;/div&gt;&lt;div&gt;X/XX&lt;br&gt;&lt;/div&gt;" style="shape=partialRectangle;html=1;whiteSpace=wrap;connectable=0;fillColor=none;top=0;left=0;bottom=0;right=0;overflow=hidden;fontStyle=1" parent="sAw_4a6z9DYao7gsoYwH-1" vertex="1">
          <mxGeometry x="327" y="140" width="78" height="40" as="geometry">
            <mxRectangle width="78" height="40" as="alternateBounds" />
          </mxGeometry>
        </mxCell>
        <mxCell id="sAw_4a6z9DYao7gsoYwH-36" value="&lt;div&gt;Mon&lt;/div&gt;&lt;div&gt;X/XX&lt;br&gt;&lt;/div&gt;" style="shape=partialRectangle;html=1;whiteSpace=wrap;connectable=0;fillColor=none;top=0;left=0;bottom=0;right=0;overflow=hidden;fontStyle=1" parent="sAw_4a6z9DYao7gsoYwH-1" vertex="1">
          <mxGeometry x="405" y="140" width="78" height="40" as="geometry">
            <mxRectangle width="78" height="40" as="alternateBounds" />
          </mxGeometry>
        </mxCell>
        <mxCell id="sAw_4a6z9DYao7gsoYwH-37" value="&lt;div&gt;Mon&lt;/div&gt;&lt;div&gt;X/XX&lt;br&gt;&lt;/div&gt;" style="shape=partialRectangle;html=1;whiteSpace=wrap;connectable=0;fillColor=none;top=0;left=0;bottom=0;right=0;overflow=hidden;fontStyle=1" parent="sAw_4a6z9DYao7gsoYwH-1" vertex="1">
          <mxGeometry x="483" y="140" width="78" height="40" as="geometry">
            <mxRectangle width="78" height="40" as="alternateBounds" />
          </mxGeometry>
        </mxCell>
        <mxCell id="sAw_4a6z9DYao7gsoYwH-38" value="&lt;div&gt;Mon&lt;/div&gt;&lt;div&gt;X/XX&lt;br&gt;&lt;/div&gt;" style="shape=partialRectangle;html=1;whiteSpace=wrap;connectable=0;fillColor=none;top=0;left=0;bottom=0;right=0;overflow=hidden;fontStyle=1" parent="sAw_4a6z9DYao7gsoYwH-1" vertex="1">
          <mxGeometry x="562" y="140" width="78" height="40" as="geometry">
            <mxRectangle width="78" height="40" as="alternateBounds" />
          </mxGeometry>
        </mxCell>
        <mxCell id="sAw_4a6z9DYao7gsoYwH-57" value="" style="shape=mxgraph.mockup.containers.marginRect;rectMarginTop=10;strokeColor=#666666;strokeWidth=1;dashed=0;rounded=1;arcSize=5;recursiveResize=0;" parent="sAw_4a6z9DYao7gsoYwH-1" vertex="1">
          <mxGeometry x="50" y="410" width="590" height="40" as="geometry" />
        </mxCell>
      </root>
    </mxGraphModel>
  </diagram>
  <diagram name="project_add" id="MJox6Y7NnM8BjNk4ZXt0">
    <mxGraphModel dx="784" dy="511" grid="1" gridSize="10" guides="1" tooltips="1" connect="1" arrows="1" fold="1" page="1" pageScale="1" pageWidth="850" pageHeight="1100" math="0" shadow="0">
      <root>
        <mxCell id="fxwwggYljHo5aDaMLsPX-0" />
        <mxCell id="fxwwggYljHo5aDaMLsPX-1" parent="fxwwggYljHo5aDaMLsPX-0" />
        <mxCell id="fxwwggYljHo5aDaMLsPX-2" value="" style="strokeWidth=1;shadow=0;dashed=0;align=center;html=1;shape=mxgraph.mockup.containers.browserWindow;rSize=0;strokeColor=#666666;strokeColor2=#008cff;strokeColor3=#c4c4c4;mainText=,;recursiveResize=0;" vertex="1" parent="fxwwggYljHo5aDaMLsPX-1">
          <mxGeometry x="35" y="50" width="720" height="530" as="geometry" />
        </mxCell>
        <mxCell id="fxwwggYljHo5aDaMLsPX-3" value="Page 1" style="strokeWidth=1;shadow=0;dashed=0;align=center;html=1;shape=mxgraph.mockup.containers.anchor;fontSize=17;fontColor=#666666;align=left;" vertex="1" parent="fxwwggYljHo5aDaMLsPX-2">
          <mxGeometry x="60" y="12" width="110" height="26" as="geometry" />
        </mxCell>
        <mxCell id="fxwwggYljHo5aDaMLsPX-4" value="https://www.draw.io" style="strokeWidth=1;shadow=0;dashed=0;align=center;html=1;shape=mxgraph.mockup.containers.anchor;rSize=0;fontSize=17;fontColor=#666666;align=left;" vertex="1" parent="fxwwggYljHo5aDaMLsPX-2">
          <mxGeometry x="130" y="60" width="250" height="26" as="geometry" />
        </mxCell>
        <mxCell id="fxwwggYljHo5aDaMLsPX-5" value="" style="shape=mxgraph.mockup.containers.marginRect;rectMarginTop=10;strokeColor=#666666;strokeWidth=1;dashed=0;rounded=1;arcSize=5;recursiveResize=0;" vertex="1" parent="fxwwggYljHo5aDaMLsPX-2">
          <mxGeometry x="50" y="120" width="590" height="290" as="geometry" />
        </mxCell>
        <mxCell id="fxwwggYljHo5aDaMLsPX-6" value="Group" style="shape=rect;strokeColor=none;fillColor=#008cff;strokeWidth=1;dashed=0;rounded=1;arcSize=20;fontColor=#ffffff;fontSize=17;spacing=2;spacingTop=-2;align=left;autosize=1;spacingLeft=4;resizeWidth=0;resizeHeight=0;perimeter=none;" vertex="1" parent="fxwwggYljHo5aDaMLsPX-5">
          <mxGeometry x="5" width="90" height="30" as="geometry" />
        </mxCell>
        <mxCell id="fxwwggYljHo5aDaMLsPX-7" value="" style="verticalLabelPosition=bottom;shadow=0;dashed=0;align=center;html=1;verticalAlign=top;strokeWidth=1;shape=mxgraph.mockup.navigation.scrollBar;strokeColor=#999999;barPos=36.235;fillColor2=#99ddff;strokeColor2=none;" vertex="1" parent="fxwwggYljHo5aDaMLsPX-5">
          <mxGeometry x="120" y="60" width="470" height="10" as="geometry" />
        </mxCell>
        <mxCell id="fxwwggYljHo5aDaMLsPX-8" value="" style="line;strokeWidth=2;html=1;" vertex="1" parent="fxwwggYljHo5aDaMLsPX-5">
          <mxGeometry y="80" width="590" height="10" as="geometry" />
        </mxCell>
        <mxCell id="fxwwggYljHo5aDaMLsPX-9" value="" style="verticalLabelPosition=bottom;shadow=0;dashed=0;align=center;html=1;verticalAlign=top;strokeWidth=1;shape=mxgraph.mockup.markup.line;strokeColor=#999999;" vertex="1" parent="fxwwggYljHo5aDaMLsPX-5">
          <mxGeometry y="130" width="590" height="20" as="geometry" />
        </mxCell>
        <mxCell id="fxwwggYljHo5aDaMLsPX-10" value="" style="verticalLabelPosition=bottom;shadow=0;dashed=0;align=center;html=1;verticalAlign=top;strokeWidth=1;shape=mxgraph.mockup.forms.splitter;strokeColor=#999999;direction=north;" vertex="1" parent="fxwwggYljHo5aDaMLsPX-5">
          <mxGeometry x="110" y="10" width="10" height="280" as="geometry" />
        </mxCell>
        <mxCell id="fxwwggYljHo5aDaMLsPX-11" value="" style="verticalLabelPosition=bottom;shadow=0;dashed=0;align=center;html=1;verticalAlign=top;strokeWidth=1;shape=mxgraph.mockup.markup.line;strokeColor=#999999;" vertex="1" parent="fxwwggYljHo5aDaMLsPX-5">
          <mxGeometry y="160" width="590" height="20" as="geometry" />
        </mxCell>
        <mxCell id="fxwwggYljHo5aDaMLsPX-12" value="" style="verticalLabelPosition=bottom;shadow=0;dashed=0;align=center;html=1;verticalAlign=top;strokeWidth=1;shape=mxgraph.mockup.markup.line;strokeColor=#999999;" vertex="1" parent="fxwwggYljHo5aDaMLsPX-5">
          <mxGeometry y="190" width="590" height="20" as="geometry" />
        </mxCell>
        <mxCell id="fxwwggYljHo5aDaMLsPX-13" value="" style="verticalLabelPosition=bottom;shadow=0;dashed=0;align=center;html=1;verticalAlign=top;strokeWidth=1;shape=mxgraph.mockup.markup.line;strokeColor=#999999;" vertex="1" parent="fxwwggYljHo5aDaMLsPX-5">
          <mxGeometry y="250" width="590" height="20" as="geometry" />
        </mxCell>
        <mxCell id="fxwwggYljHo5aDaMLsPX-14" value="" style="verticalLabelPosition=bottom;shadow=0;dashed=0;align=center;html=1;verticalAlign=top;strokeWidth=1;shape=mxgraph.mockup.markup.line;strokeColor=#999999;" vertex="1" parent="fxwwggYljHo5aDaMLsPX-5">
          <mxGeometry y="220" width="590" height="20" as="geometry" />
        </mxCell>
        <mxCell id="fxwwggYljHo5aDaMLsPX-15" value="" style="verticalLabelPosition=bottom;shadow=0;dashed=0;align=center;html=1;verticalAlign=top;strokeWidth=1;shape=mxgraph.mockup.markup.line;strokeColor=#999999;" vertex="1" parent="fxwwggYljHo5aDaMLsPX-5">
          <mxGeometry y="100" width="590" height="20" as="geometry" />
        </mxCell>
        <mxCell id="fxwwggYljHo5aDaMLsPX-16" value="" style="verticalLabelPosition=bottom;shadow=0;dashed=0;align=center;html=1;verticalAlign=top;strokeWidth=1;shape=mxgraph.mockup.markup.line;strokeColor=#999999;direction=north;" vertex="1" parent="fxwwggYljHo5aDaMLsPX-5">
          <mxGeometry x="185" y="85" width="20" height="205" as="geometry" />
        </mxCell>
        <mxCell id="fxwwggYljHo5aDaMLsPX-17" value="" style="verticalLabelPosition=bottom;shadow=0;dashed=0;align=center;html=1;verticalAlign=top;strokeWidth=1;shape=mxgraph.mockup.markup.line;strokeColor=#999999;direction=north;" vertex="1" parent="fxwwggYljHo5aDaMLsPX-5">
          <mxGeometry x="505" y="80" width="20" height="210" as="geometry" />
        </mxCell>
        <mxCell id="fxwwggYljHo5aDaMLsPX-18" value="" style="verticalLabelPosition=bottom;shadow=0;dashed=0;align=center;html=1;verticalAlign=top;strokeWidth=1;shape=mxgraph.mockup.markup.line;strokeColor=#999999;direction=north;" vertex="1" parent="fxwwggYljHo5aDaMLsPX-5">
          <mxGeometry x="425" y="85" width="20" height="205" as="geometry" />
        </mxCell>
        <mxCell id="fxwwggYljHo5aDaMLsPX-19" value="" style="verticalLabelPosition=bottom;shadow=0;dashed=0;align=center;html=1;verticalAlign=top;strokeWidth=1;shape=mxgraph.mockup.markup.line;strokeColor=#999999;direction=north;" vertex="1" parent="fxwwggYljHo5aDaMLsPX-5">
          <mxGeometry x="345" y="85" width="20" height="205" as="geometry" />
        </mxCell>
        <mxCell id="fxwwggYljHo5aDaMLsPX-20" value="" style="verticalLabelPosition=bottom;shadow=0;dashed=0;align=center;html=1;verticalAlign=top;strokeWidth=1;shape=mxgraph.mockup.markup.line;strokeColor=#999999;direction=north;" vertex="1" parent="fxwwggYljHo5aDaMLsPX-5">
          <mxGeometry x="265" y="85" width="20" height="205" as="geometry" />
        </mxCell>
        <mxCell id="fxwwggYljHo5aDaMLsPX-21" value="&lt;div&gt;+&lt;/div&gt;" style="strokeWidth=1;shadow=0;dashed=0;align=center;html=1;shape=mxgraph.mockup.buttons.button;strokeColor=#666666;fontColor=#ffffff;mainText=;buttonStyle=round;fontSize=17;fontStyle=1;fillColor=#008cff;whiteSpace=wrap;" vertex="1" parent="fxwwggYljHo5aDaMLsPX-2">
          <mxGeometry x="9" y="420" width="30" height="30" as="geometry" />
        </mxCell>
        <mxCell id="fxwwggYljHo5aDaMLsPX-22" value="" style="shape=table;html=1;whiteSpace=wrap;startSize=0;container=1;collapsible=0;childLayout=tableLayout;strokeWidth=2;" vertex="1" parent="fxwwggYljHo5aDaMLsPX-2">
          <mxGeometry x="170" y="140" width="470" height="40" as="geometry" />
        </mxCell>
        <mxCell id="fxwwggYljHo5aDaMLsPX-23" value="" style="shape=tableRow;horizontal=0;startSize=0;swimlaneHead=0;swimlaneBody=0;top=0;left=0;bottom=0;right=0;collapsible=0;dropTarget=0;fillColor=none;points=[[0,0.5],[1,0.5]];portConstraint=eastwest;" vertex="1" parent="fxwwggYljHo5aDaMLsPX-22">
          <mxGeometry width="470" height="40" as="geometry" />
        </mxCell>
        <mxCell id="fxwwggYljHo5aDaMLsPX-24" value="&lt;div&gt;Mon&lt;/div&gt;&lt;div&gt;X/XX&lt;br&gt;&lt;/div&gt;" style="shape=partialRectangle;html=1;whiteSpace=wrap;connectable=0;fillColor=none;top=0;left=0;bottom=0;right=0;overflow=hidden;fontStyle=1" vertex="1" parent="fxwwggYljHo5aDaMLsPX-23">
          <mxGeometry width="78" height="40" as="geometry">
            <mxRectangle width="78" height="40" as="alternateBounds" />
          </mxGeometry>
        </mxCell>
        <mxCell id="fxwwggYljHo5aDaMLsPX-25" value="" style="shape=partialRectangle;html=1;whiteSpace=wrap;connectable=0;fillColor=none;top=0;left=0;bottom=0;right=0;overflow=hidden;fontStyle=1" vertex="1" parent="fxwwggYljHo5aDaMLsPX-23">
          <mxGeometry x="78" width="79" height="40" as="geometry">
            <mxRectangle width="79" height="40" as="alternateBounds" />
          </mxGeometry>
        </mxCell>
        <mxCell id="fxwwggYljHo5aDaMLsPX-26" style="shape=partialRectangle;html=1;whiteSpace=wrap;connectable=0;fillColor=none;top=0;left=0;bottom=0;right=0;overflow=hidden;fontStyle=1" vertex="1" parent="fxwwggYljHo5aDaMLsPX-23">
          <mxGeometry x="157" width="78" height="40" as="geometry">
            <mxRectangle width="78" height="40" as="alternateBounds" />
          </mxGeometry>
        </mxCell>
        <mxCell id="fxwwggYljHo5aDaMLsPX-27" style="shape=partialRectangle;html=1;whiteSpace=wrap;connectable=0;fillColor=none;top=0;left=0;bottom=0;right=0;overflow=hidden;fontStyle=1" vertex="1" parent="fxwwggYljHo5aDaMLsPX-23">
          <mxGeometry x="235" width="78" height="40" as="geometry">
            <mxRectangle width="78" height="40" as="alternateBounds" />
          </mxGeometry>
        </mxCell>
        <mxCell id="fxwwggYljHo5aDaMLsPX-28" style="shape=partialRectangle;html=1;whiteSpace=wrap;connectable=0;fillColor=none;top=0;left=0;bottom=0;right=0;overflow=hidden;fontStyle=1" vertex="1" parent="fxwwggYljHo5aDaMLsPX-23">
          <mxGeometry x="313" width="79" height="40" as="geometry">
            <mxRectangle width="79" height="40" as="alternateBounds" />
          </mxGeometry>
        </mxCell>
        <mxCell id="fxwwggYljHo5aDaMLsPX-29" style="shape=partialRectangle;html=1;whiteSpace=wrap;connectable=0;fillColor=none;top=0;left=0;bottom=0;right=0;overflow=hidden;fontStyle=1" vertex="1" parent="fxwwggYljHo5aDaMLsPX-23">
          <mxGeometry x="392" width="78" height="40" as="geometry">
            <mxRectangle width="78" height="40" as="alternateBounds" />
          </mxGeometry>
        </mxCell>
        <mxCell id="fxwwggYljHo5aDaMLsPX-30" value="&lt;div&gt;Mon&lt;/div&gt;&lt;div&gt;X/XX&lt;br&gt;&lt;/div&gt;" style="shape=partialRectangle;html=1;whiteSpace=wrap;connectable=0;fillColor=none;top=0;left=0;bottom=0;right=0;overflow=hidden;fontStyle=1" vertex="1" parent="fxwwggYljHo5aDaMLsPX-2">
          <mxGeometry x="245" y="140" width="78" height="40" as="geometry">
            <mxRectangle width="78" height="40" as="alternateBounds" />
          </mxGeometry>
        </mxCell>
        <mxCell id="fxwwggYljHo5aDaMLsPX-31" value="&lt;div&gt;Mon&lt;/div&gt;&lt;div&gt;X/XX&lt;br&gt;&lt;/div&gt;" style="shape=partialRectangle;html=1;whiteSpace=wrap;connectable=0;fillColor=none;top=0;left=0;bottom=0;right=0;overflow=hidden;fontStyle=1" vertex="1" parent="fxwwggYljHo5aDaMLsPX-2">
          <mxGeometry x="327" y="140" width="78" height="40" as="geometry">
            <mxRectangle width="78" height="40" as="alternateBounds" />
          </mxGeometry>
        </mxCell>
        <mxCell id="fxwwggYljHo5aDaMLsPX-32" value="&lt;div&gt;Mon&lt;/div&gt;&lt;div&gt;X/XX&lt;br&gt;&lt;/div&gt;" style="shape=partialRectangle;html=1;whiteSpace=wrap;connectable=0;fillColor=none;top=0;left=0;bottom=0;right=0;overflow=hidden;fontStyle=1" vertex="1" parent="fxwwggYljHo5aDaMLsPX-2">
          <mxGeometry x="405" y="140" width="78" height="40" as="geometry">
            <mxRectangle width="78" height="40" as="alternateBounds" />
          </mxGeometry>
        </mxCell>
        <mxCell id="fxwwggYljHo5aDaMLsPX-33" value="&lt;div&gt;Mon&lt;/div&gt;&lt;div&gt;X/XX&lt;br&gt;&lt;/div&gt;" style="shape=partialRectangle;html=1;whiteSpace=wrap;connectable=0;fillColor=none;top=0;left=0;bottom=0;right=0;overflow=hidden;fontStyle=1" vertex="1" parent="fxwwggYljHo5aDaMLsPX-2">
          <mxGeometry x="483" y="140" width="78" height="40" as="geometry">
            <mxRectangle width="78" height="40" as="alternateBounds" />
          </mxGeometry>
        </mxCell>
        <mxCell id="fxwwggYljHo5aDaMLsPX-34" value="&lt;div&gt;Mon&lt;/div&gt;&lt;div&gt;X/XX&lt;br&gt;&lt;/div&gt;" style="shape=partialRectangle;html=1;whiteSpace=wrap;connectable=0;fillColor=none;top=0;left=0;bottom=0;right=0;overflow=hidden;fontStyle=1" vertex="1" parent="fxwwggYljHo5aDaMLsPX-2">
          <mxGeometry x="562" y="140" width="78" height="40" as="geometry">
            <mxRectangle width="78" height="40" as="alternateBounds" />
          </mxGeometry>
        </mxCell>
        <mxCell id="fxwwggYljHo5aDaMLsPX-35" value="" style="shape=mxgraph.mockup.containers.marginRect;rectMarginTop=10;strokeColor=#666666;strokeWidth=1;dashed=0;rounded=1;arcSize=5;recursiveResize=0;" vertex="1" parent="fxwwggYljHo5aDaMLsPX-2">
          <mxGeometry x="50" y="410" width="590" height="40" as="geometry" />
        </mxCell>
        <mxCell id="fSlNi4xNZD0MDiklumo4-61" value="Add new project" style="strokeWidth=1;shadow=0;dashed=0;align=center;html=1;shape=mxgraph.mockup.containers.window;align=left;verticalAlign=top;spacingLeft=8;strokeColor2=#008cff;strokeColor3=#c4c4c4;fontColor=#666666;mainText=;fontSize=17;labelBackgroundColor=none;" vertex="1" parent="fxwwggYljHo5aDaMLsPX-2">
          <mxGeometry x="95" y="130" width="500" height="320" as="geometry" />
        </mxCell>
        <mxCell id="fSlNi4xNZD0MDiklumo4-62" value="&lt;div&gt;Project name?&lt;br&gt;&lt;/div&gt;&lt;div&gt;Duration?&lt;/div&gt;&lt;div&gt;Hard deadlines?&lt;/div&gt;&lt;div&gt;Soft deadlines?&lt;/div&gt;&lt;div&gt;&lt;br&gt;&lt;/div&gt;&lt;div&gt;Extra credit activities?&lt;/div&gt;&lt;div&gt;&lt;br&gt;&lt;/div&gt;&lt;div&gt;&lt;br&gt;&lt;/div&gt;&lt;div&gt;&lt;br&gt;&lt;/div&gt;&lt;div&gt;&lt;br&gt;&lt;/div&gt;&lt;div&gt;Alternative activities?&lt;br&gt;&lt;/div&gt;&lt;div&gt;&lt;br&gt;&lt;/div&gt;" style="text;html=1;strokeColor=none;fillColor=none;align=center;verticalAlign=middle;whiteSpace=wrap;rounded=0;" vertex="1" parent="fxwwggYljHo5aDaMLsPX-2">
          <mxGeometry x="115" y="205" width="175" height="140" as="geometry" />
        </mxCell>
        <mxCell id="fSlNi4xNZD0MDiklumo4-65" value="" style="strokeWidth=1;shadow=0;dashed=0;align=center;html=1;shape=mxgraph.mockup.forms.rrect;rSize=5;strokeColor=#999999;fillColor=#ffffff;" vertex="1" parent="fxwwggYljHo5aDaMLsPX-2">
          <mxGeometry x="385" y="170" width="160" height="175" as="geometry" />
        </mxCell>
        <mxCell id="fSlNi4xNZD0MDiklumo4-66" value="October 2014" style="strokeWidth=1;shadow=0;dashed=0;align=center;html=1;shape=mxgraph.mockup.forms.anchor;fontColor=#999999;" vertex="1" parent="fSlNi4xNZD0MDiklumo4-65">
          <mxGeometry x="30" y="8" width="100" height="20" as="geometry" />
        </mxCell>
        <mxCell id="fSlNi4xNZD0MDiklumo4-67" value="&lt;" style="strokeWidth=1;shadow=0;dashed=0;align=center;html=1;shape=mxgraph.mockup.forms.rrect;rSize=4;strokeColor=#999999;fontColor=#008cff;fontSize=19;fontStyle=1;" vertex="1" parent="fSlNi4xNZD0MDiklumo4-65">
          <mxGeometry x="8" y="8" width="25" height="20" as="geometry" />
        </mxCell>
        <mxCell id="fSlNi4xNZD0MDiklumo4-68" value="&gt;" style="strokeWidth=1;shadow=0;dashed=0;align=center;html=1;shape=mxgraph.mockup.forms.rrect;rSize=4;strokeColor=#999999;fontColor=#008cff;fontSize=19;fontStyle=1;" vertex="1" parent="fSlNi4xNZD0MDiklumo4-65">
          <mxGeometry x="127" y="8" width="25" height="20" as="geometry" />
        </mxCell>
        <mxCell id="fSlNi4xNZD0MDiklumo4-69" value="Mo" style="strokeWidth=1;shadow=0;dashed=0;align=center;html=1;shape=mxgraph.mockup.forms.anchor;fontColor=#999999;" vertex="1" parent="fSlNi4xNZD0MDiklumo4-65">
          <mxGeometry x="10" y="28" width="20" height="20" as="geometry" />
        </mxCell>
        <mxCell id="fSlNi4xNZD0MDiklumo4-70" value="Tu" style="strokeWidth=1;shadow=0;dashed=0;align=center;html=1;shape=mxgraph.mockup.forms.anchor;fontColor=#999999;" vertex="1" parent="fSlNi4xNZD0MDiklumo4-65">
          <mxGeometry x="30" y="28" width="20" height="20" as="geometry" />
        </mxCell>
        <mxCell id="fSlNi4xNZD0MDiklumo4-71" value="We" style="strokeWidth=1;shadow=0;dashed=0;align=center;html=1;shape=mxgraph.mockup.forms.anchor;fontColor=#999999;" vertex="1" parent="fSlNi4xNZD0MDiklumo4-65">
          <mxGeometry x="50" y="28" width="20" height="20" as="geometry" />
        </mxCell>
        <mxCell id="fSlNi4xNZD0MDiklumo4-72" value="Th" style="strokeWidth=1;shadow=0;dashed=0;align=center;html=1;shape=mxgraph.mockup.forms.anchor;fontColor=#999999;" vertex="1" parent="fSlNi4xNZD0MDiklumo4-65">
          <mxGeometry x="70" y="28" width="20" height="20" as="geometry" />
        </mxCell>
        <mxCell id="fSlNi4xNZD0MDiklumo4-73" value="Fr" style="strokeWidth=1;shadow=0;dashed=0;align=center;html=1;shape=mxgraph.mockup.forms.anchor;fontColor=#999999;" vertex="1" parent="fSlNi4xNZD0MDiklumo4-65">
          <mxGeometry x="90" y="28" width="20" height="20" as="geometry" />
        </mxCell>
        <mxCell id="fSlNi4xNZD0MDiklumo4-74" value="Sa" style="strokeWidth=1;shadow=0;dashed=0;align=center;html=1;shape=mxgraph.mockup.forms.anchor;fontColor=#999999;" vertex="1" parent="fSlNi4xNZD0MDiklumo4-65">
          <mxGeometry x="110" y="28" width="20" height="20" as="geometry" />
        </mxCell>
        <mxCell id="fSlNi4xNZD0MDiklumo4-75" value="Su" style="strokeWidth=1;shadow=0;dashed=0;align=center;html=1;shape=mxgraph.mockup.forms.anchor;fontColor=#999999;" vertex="1" parent="fSlNi4xNZD0MDiklumo4-65">
          <mxGeometry x="130" y="28" width="20" height="20" as="geometry" />
        </mxCell>
        <mxCell id="fSlNi4xNZD0MDiklumo4-76" value="1" style="strokeWidth=1;shadow=0;dashed=0;align=center;html=1;shape=mxgraph.mockup.forms.rrect;rSize=0;strokeColor=#999999;fontColor=#999999;" vertex="1" parent="fSlNi4xNZD0MDiklumo4-65">
          <mxGeometry x="10" y="48" width="20" height="20" as="geometry" />
        </mxCell>
        <mxCell id="fSlNi4xNZD0MDiklumo4-77" value="2" style="strokeWidth=1;shadow=0;dashed=0;align=center;html=1;shape=mxgraph.mockup.forms.rrect;rSize=0;strokeColor=#999999;fontColor=#999999;" vertex="1" parent="fSlNi4xNZD0MDiklumo4-65">
          <mxGeometry x="30" y="48" width="20" height="20" as="geometry" />
        </mxCell>
        <mxCell id="fSlNi4xNZD0MDiklumo4-78" value="3" style="strokeWidth=1;shadow=0;dashed=0;align=center;html=1;shape=mxgraph.mockup.forms.rrect;rSize=0;strokeColor=#999999;fontColor=#999999;" vertex="1" parent="fSlNi4xNZD0MDiklumo4-65">
          <mxGeometry x="50" y="48" width="20" height="20" as="geometry" />
        </mxCell>
        <mxCell id="fSlNi4xNZD0MDiklumo4-79" value="4" style="strokeWidth=1;shadow=0;dashed=0;align=center;html=1;shape=mxgraph.mockup.forms.rrect;rSize=0;strokeColor=#999999;fontColor=#999999;" vertex="1" parent="fSlNi4xNZD0MDiklumo4-65">
          <mxGeometry x="70" y="48" width="20" height="20" as="geometry" />
        </mxCell>
        <mxCell id="fSlNi4xNZD0MDiklumo4-80" value="5" style="strokeWidth=1;shadow=0;dashed=0;align=center;html=1;shape=mxgraph.mockup.forms.rrect;rSize=0;strokeColor=#999999;fontColor=#999999;" vertex="1" parent="fSlNi4xNZD0MDiklumo4-65">
          <mxGeometry x="90" y="48" width="20" height="20" as="geometry" />
        </mxCell>
        <mxCell id="fSlNi4xNZD0MDiklumo4-81" value="6" style="strokeWidth=1;shadow=0;dashed=0;align=center;html=1;shape=mxgraph.mockup.forms.rrect;rSize=0;strokeColor=#999999;fontColor=#999999;" vertex="1" parent="fSlNi4xNZD0MDiklumo4-65">
          <mxGeometry x="110" y="48" width="20" height="20" as="geometry" />
        </mxCell>
        <mxCell id="fSlNi4xNZD0MDiklumo4-82" value="7" style="strokeWidth=1;shadow=0;dashed=0;align=center;html=1;shape=mxgraph.mockup.forms.rrect;rSize=0;strokeColor=#999999;fontColor=#999999;" vertex="1" parent="fSlNi4xNZD0MDiklumo4-65">
          <mxGeometry x="130" y="48" width="20" height="20" as="geometry" />
        </mxCell>
        <mxCell id="fSlNi4xNZD0MDiklumo4-83" value="8" style="strokeWidth=1;shadow=0;dashed=0;align=center;html=1;shape=mxgraph.mockup.forms.rrect;rSize=0;strokeColor=#999999;fontColor=#999999;" vertex="1" parent="fSlNi4xNZD0MDiklumo4-65">
          <mxGeometry x="10" y="68" width="20" height="20" as="geometry" />
        </mxCell>
        <mxCell id="fSlNi4xNZD0MDiklumo4-84" value="9" style="strokeWidth=1;shadow=0;dashed=0;align=center;html=1;shape=mxgraph.mockup.forms.rrect;rSize=0;strokeColor=#999999;fontColor=#999999;" vertex="1" parent="fSlNi4xNZD0MDiklumo4-65">
          <mxGeometry x="30" y="68" width="20" height="20" as="geometry" />
        </mxCell>
        <mxCell id="fSlNi4xNZD0MDiklumo4-85" value="10" style="strokeWidth=1;shadow=0;dashed=0;align=center;html=1;shape=mxgraph.mockup.forms.rrect;rSize=0;strokeColor=#999999;fontColor=#999999;" vertex="1" parent="fSlNi4xNZD0MDiklumo4-65">
          <mxGeometry x="50" y="68" width="20" height="20" as="geometry" />
        </mxCell>
        <mxCell id="fSlNi4xNZD0MDiklumo4-86" value="11" style="strokeWidth=1;shadow=0;dashed=0;align=center;html=1;shape=mxgraph.mockup.forms.rrect;rSize=0;strokeColor=#999999;fontColor=#999999;" vertex="1" parent="fSlNi4xNZD0MDiklumo4-65">
          <mxGeometry x="70" y="68" width="20" height="20" as="geometry" />
        </mxCell>
        <mxCell id="fSlNi4xNZD0MDiklumo4-87" value="12" style="strokeWidth=1;shadow=0;dashed=0;align=center;html=1;shape=mxgraph.mockup.forms.rrect;rSize=0;strokeColor=#999999;fontColor=#999999;" vertex="1" parent="fSlNi4xNZD0MDiklumo4-65">
          <mxGeometry x="90" y="68" width="20" height="20" as="geometry" />
        </mxCell>
        <mxCell id="fSlNi4xNZD0MDiklumo4-88" value="13" style="strokeWidth=1;shadow=0;dashed=0;align=center;html=1;shape=mxgraph.mockup.forms.rrect;rSize=0;strokeColor=#999999;fontColor=#999999;" vertex="1" parent="fSlNi4xNZD0MDiklumo4-65">
          <mxGeometry x="110" y="68" width="20" height="20" as="geometry" />
        </mxCell>
        <mxCell id="fSlNi4xNZD0MDiklumo4-89" value="14" style="strokeWidth=1;shadow=0;dashed=0;align=center;html=1;shape=mxgraph.mockup.forms.rrect;rSize=0;strokeColor=#999999;fontColor=#999999;" vertex="1" parent="fSlNi4xNZD0MDiklumo4-65">
          <mxGeometry x="130" y="68" width="20" height="20" as="geometry" />
        </mxCell>
        <mxCell id="fSlNi4xNZD0MDiklumo4-90" value="15" style="strokeWidth=1;shadow=0;dashed=0;align=center;html=1;shape=mxgraph.mockup.forms.rrect;rSize=0;strokeColor=#999999;fontColor=#999999;" vertex="1" parent="fSlNi4xNZD0MDiklumo4-65">
          <mxGeometry x="10" y="88" width="20" height="20" as="geometry" />
        </mxCell>
        <mxCell id="fSlNi4xNZD0MDiklumo4-91" value="16" style="strokeWidth=1;shadow=0;dashed=0;align=center;html=1;shape=mxgraph.mockup.forms.rrect;rSize=0;strokeColor=#999999;fontColor=#999999;" vertex="1" parent="fSlNi4xNZD0MDiklumo4-65">
          <mxGeometry x="30" y="88" width="20" height="20" as="geometry" />
        </mxCell>
        <mxCell id="fSlNi4xNZD0MDiklumo4-92" value="17" style="strokeWidth=1;shadow=0;dashed=0;align=center;html=1;shape=mxgraph.mockup.forms.rrect;rSize=0;strokeColor=#999999;fontColor=#999999;" vertex="1" parent="fSlNi4xNZD0MDiklumo4-65">
          <mxGeometry x="50" y="88" width="20" height="20" as="geometry" />
        </mxCell>
        <mxCell id="fSlNi4xNZD0MDiklumo4-93" value="18" style="strokeWidth=1;shadow=0;dashed=0;align=center;html=1;shape=mxgraph.mockup.forms.rrect;rSize=0;strokeColor=#999999;fontColor=#999999;" vertex="1" parent="fSlNi4xNZD0MDiklumo4-65">
          <mxGeometry x="70" y="88" width="20" height="20" as="geometry" />
        </mxCell>
        <mxCell id="fSlNi4xNZD0MDiklumo4-94" value="19" style="strokeWidth=1;shadow=0;dashed=0;align=center;html=1;shape=mxgraph.mockup.forms.rrect;rSize=0;strokeColor=#999999;fontColor=#999999;" vertex="1" parent="fSlNi4xNZD0MDiklumo4-65">
          <mxGeometry x="90" y="88" width="20" height="20" as="geometry" />
        </mxCell>
        <mxCell id="fSlNi4xNZD0MDiklumo4-95" value="20" style="strokeWidth=1;shadow=0;dashed=0;align=center;html=1;shape=mxgraph.mockup.forms.rrect;rSize=0;strokeColor=#999999;fontColor=#999999;" vertex="1" parent="fSlNi4xNZD0MDiklumo4-65">
          <mxGeometry x="110" y="88" width="20" height="20" as="geometry" />
        </mxCell>
        <mxCell id="fSlNi4xNZD0MDiklumo4-96" value="21" style="strokeWidth=1;shadow=0;dashed=0;align=center;html=1;shape=mxgraph.mockup.forms.rrect;rSize=0;strokeColor=#999999;fontColor=#999999;" vertex="1" parent="fSlNi4xNZD0MDiklumo4-65">
          <mxGeometry x="130" y="88" width="20" height="20" as="geometry" />
        </mxCell>
        <mxCell id="fSlNi4xNZD0MDiklumo4-97" value="22" style="strokeWidth=1;shadow=0;dashed=0;align=center;html=1;shape=mxgraph.mockup.forms.rrect;rSize=0;strokeColor=#999999;fontColor=#999999;" vertex="1" parent="fSlNi4xNZD0MDiklumo4-65">
          <mxGeometry x="10" y="108" width="20" height="20" as="geometry" />
        </mxCell>
        <mxCell id="fSlNi4xNZD0MDiklumo4-98" value="23" style="strokeWidth=1;shadow=0;dashed=0;align=center;html=1;shape=mxgraph.mockup.forms.rrect;rSize=0;strokeColor=#999999;fontColor=#999999;" vertex="1" parent="fSlNi4xNZD0MDiklumo4-65">
          <mxGeometry x="30" y="108" width="20" height="20" as="geometry" />
        </mxCell>
        <mxCell id="fSlNi4xNZD0MDiklumo4-99" value="25" style="strokeWidth=1;shadow=0;dashed=0;align=center;html=1;shape=mxgraph.mockup.forms.rrect;rSize=0;strokeColor=#999999;fontColor=#999999;" vertex="1" parent="fSlNi4xNZD0MDiklumo4-65">
          <mxGeometry x="70" y="108" width="20" height="20" as="geometry" />
        </mxCell>
        <mxCell id="fSlNi4xNZD0MDiklumo4-100" value="26" style="strokeWidth=1;shadow=0;dashed=0;align=center;html=1;shape=mxgraph.mockup.forms.rrect;rSize=0;strokeColor=#999999;fontColor=#999999;" vertex="1" parent="fSlNi4xNZD0MDiklumo4-65">
          <mxGeometry x="90" y="108" width="20" height="20" as="geometry" />
        </mxCell>
        <mxCell id="fSlNi4xNZD0MDiklumo4-101" value="27" style="strokeWidth=1;shadow=0;dashed=0;align=center;html=1;shape=mxgraph.mockup.forms.rrect;rSize=0;strokeColor=#999999;fontColor=#999999;" vertex="1" parent="fSlNi4xNZD0MDiklumo4-65">
          <mxGeometry x="110" y="108" width="20" height="20" as="geometry" />
        </mxCell>
        <mxCell id="fSlNi4xNZD0MDiklumo4-102" value="28" style="strokeWidth=1;shadow=0;dashed=0;align=center;html=1;shape=mxgraph.mockup.forms.rrect;rSize=0;strokeColor=#999999;fontColor=#999999;" vertex="1" parent="fSlNi4xNZD0MDiklumo4-65">
          <mxGeometry x="130" y="108" width="20" height="20" as="geometry" />
        </mxCell>
        <mxCell id="fSlNi4xNZD0MDiklumo4-103" value="29" style="strokeWidth=1;shadow=0;dashed=0;align=center;html=1;shape=mxgraph.mockup.forms.rrect;rSize=0;strokeColor=#999999;fontColor=#999999;" vertex="1" parent="fSlNi4xNZD0MDiklumo4-65">
          <mxGeometry x="10" y="128" width="20" height="20" as="geometry" />
        </mxCell>
        <mxCell id="fSlNi4xNZD0MDiklumo4-104" value="30" style="strokeWidth=1;shadow=0;dashed=0;align=center;html=1;shape=mxgraph.mockup.forms.rrect;rSize=0;strokeColor=#999999;fontColor=#999999;" vertex="1" parent="fSlNi4xNZD0MDiklumo4-65">
          <mxGeometry x="30" y="128" width="20" height="20" as="geometry" />
        </mxCell>
        <mxCell id="fSlNi4xNZD0MDiklumo4-105" value="31" style="strokeWidth=1;shadow=0;dashed=0;align=center;html=1;shape=mxgraph.mockup.forms.rrect;rSize=0;strokeColor=#999999;fontColor=#999999;" vertex="1" parent="fSlNi4xNZD0MDiklumo4-65">
          <mxGeometry x="50" y="128" width="20" height="20" as="geometry" />
        </mxCell>
        <mxCell id="fSlNi4xNZD0MDiklumo4-106" value="1" style="strokeWidth=1;shadow=0;dashed=0;align=center;html=1;shape=mxgraph.mockup.forms.rrect;rSize=0;strokeColor=#999999;fontColor=#999999;fillColor=#ddeeff;" vertex="1" parent="fSlNi4xNZD0MDiklumo4-65">
          <mxGeometry x="70" y="128" width="20" height="20" as="geometry" />
        </mxCell>
        <mxCell id="fSlNi4xNZD0MDiklumo4-107" value="2" style="strokeWidth=1;shadow=0;dashed=0;align=center;html=1;shape=mxgraph.mockup.forms.rrect;rSize=0;strokeColor=#999999;fontColor=#999999;fillColor=#ddeeff;" vertex="1" parent="fSlNi4xNZD0MDiklumo4-65">
          <mxGeometry x="90" y="128" width="20" height="20" as="geometry" />
        </mxCell>
        <mxCell id="fSlNi4xNZD0MDiklumo4-108" value="3" style="strokeWidth=1;shadow=0;dashed=0;align=center;html=1;shape=mxgraph.mockup.forms.rrect;rSize=0;strokeColor=#999999;fontColor=#999999;fillColor=#ddeeff;" vertex="1" parent="fSlNi4xNZD0MDiklumo4-65">
          <mxGeometry x="110" y="128" width="20" height="20" as="geometry" />
        </mxCell>
        <mxCell id="fSlNi4xNZD0MDiklumo4-109" value="4" style="strokeWidth=1;shadow=0;dashed=0;align=center;html=1;shape=mxgraph.mockup.forms.rrect;rSize=0;strokeColor=#999999;fontColor=#999999;fillColor=#ddeeff;" vertex="1" parent="fSlNi4xNZD0MDiklumo4-65">
          <mxGeometry x="130" y="128" width="20" height="20" as="geometry" />
        </mxCell>
        <mxCell id="fSlNi4xNZD0MDiklumo4-110" value="5" style="strokeWidth=1;shadow=0;dashed=0;align=center;html=1;shape=mxgraph.mockup.forms.rrect;rSize=0;strokeColor=#999999;fontColor=#999999;fillColor=#ddeeff;" vertex="1" parent="fSlNi4xNZD0MDiklumo4-65">
          <mxGeometry x="10" y="148" width="20" height="20" as="geometry" />
        </mxCell>
        <mxCell id="fSlNi4xNZD0MDiklumo4-111" value="6" style="strokeWidth=1;shadow=0;dashed=0;align=center;html=1;shape=mxgraph.mockup.forms.rrect;rSize=0;strokeColor=#999999;fontColor=#999999;fillColor=#ddeeff;" vertex="1" parent="fSlNi4xNZD0MDiklumo4-65">
          <mxGeometry x="30" y="148" width="20" height="20" as="geometry" />
        </mxCell>
        <mxCell id="fSlNi4xNZD0MDiklumo4-112" value="7" style="strokeWidth=1;shadow=0;dashed=0;align=center;html=1;shape=mxgraph.mockup.forms.rrect;rSize=0;strokeColor=#999999;fontColor=#999999;fillColor=#ddeeff;" vertex="1" parent="fSlNi4xNZD0MDiklumo4-65">
          <mxGeometry x="50" y="148" width="20" height="20" as="geometry" />
        </mxCell>
        <mxCell id="fSlNi4xNZD0MDiklumo4-113" value="8" style="strokeWidth=1;shadow=0;dashed=0;align=center;html=1;shape=mxgraph.mockup.forms.rrect;rSize=0;strokeColor=#999999;fontColor=#999999;fillColor=#ddeeff;" vertex="1" parent="fSlNi4xNZD0MDiklumo4-65">
          <mxGeometry x="70" y="148" width="20" height="20" as="geometry" />
        </mxCell>
        <mxCell id="fSlNi4xNZD0MDiklumo4-114" value="9" style="strokeWidth=1;shadow=0;dashed=0;align=center;html=1;shape=mxgraph.mockup.forms.rrect;rSize=0;strokeColor=#999999;fontColor=#999999;fillColor=#ddeeff;" vertex="1" parent="fSlNi4xNZD0MDiklumo4-65">
          <mxGeometry x="90" y="148" width="20" height="20" as="geometry" />
        </mxCell>
        <mxCell id="fSlNi4xNZD0MDiklumo4-115" value="10" style="strokeWidth=1;shadow=0;dashed=0;align=center;html=1;shape=mxgraph.mockup.forms.rrect;rSize=0;strokeColor=#999999;fontColor=#999999;fillColor=#ddeeff;" vertex="1" parent="fSlNi4xNZD0MDiklumo4-65">
          <mxGeometry x="110" y="148" width="20" height="20" as="geometry" />
        </mxCell>
        <mxCell id="fSlNi4xNZD0MDiklumo4-116" value="11" style="strokeWidth=1;shadow=0;dashed=0;align=center;html=1;shape=mxgraph.mockup.forms.rrect;rSize=0;strokeColor=#999999;fontColor=#999999;fillColor=#ddeeff;" vertex="1" parent="fSlNi4xNZD0MDiklumo4-65">
          <mxGeometry x="130" y="148" width="20" height="20" as="geometry" />
        </mxCell>
        <mxCell id="fSlNi4xNZD0MDiklumo4-117" value="24" style="strokeWidth=1;shadow=0;dashed=0;align=center;html=1;shape=mxgraph.mockup.forms.rrect;rSize=0;strokeColor=#ff0000;fontColor=#ffffff;strokeWidth=2;fillColor=#008cff;" vertex="1" parent="fSlNi4xNZD0MDiklumo4-65">
          <mxGeometry x="50" y="108" width="20" height="20" as="geometry" />
        </mxCell>
      </root>
    </mxGraphModel>
  </diagram>
</mxfile>
